<svg width="104" height="86" viewBox="0 0 104 86" fill="none" xmlns="http://www.w3.org/2000/svg">
<path fill-rule="evenodd" clip-rule="evenodd" d="M51.8327 0C71.7793 0 88.0855 16.3062 88.0855 36.2528C88.0855 56.1995 71.7793 72.5057 51.8327 72.5057C31.8102 72.5057 15.504 56.1995 15.504 36.2528C15.504 16.3062 31.8102 0 51.8327 0ZM18.0827 34.9635C23.0124 35.3427 27.4872 33.2191 32.7962 31.1714C36.8158 29.882 40.3804 30.5646 44.1726 32.0815C48.5714 34.736 52.8186 35.191 57.3692 32.0815C61.6164 29.8062 66.167 30.1854 70.6417 32.0815C75.3439 34.3568 80.2737 35.3427 85.5827 35.1152C85.0518 17.0646 70.1108 2.42697 51.9085 2.42697C33.6304 2.42697 18.6894 16.9888 18.0827 34.9635ZM18.1585 40.5759C22.9366 40.9551 27.4113 38.8315 32.7203 36.7837C36.74 35.4944 40.3046 36.177 44.0967 37.6938C48.4956 40.3483 52.7428 40.8034 57.2934 37.6938C61.5406 35.4186 66.0911 35.7978 70.5658 37.6938C75.2681 39.9691 80.1979 40.9551 85.2793 40.7276C85.3552 39.8174 85.5069 38.9073 85.431 37.7697C80.122 38.0731 75.1922 37.0113 70.49 34.736C66.0153 32.7641 61.4647 32.4607 57.2175 34.736C52.7428 37.8455 48.4956 37.3905 44.0209 34.736C40.2287 33.2191 36.6641 32.5365 32.6445 33.8259C27.3355 35.8736 22.8608 37.9972 17.931 37.7697C18.0068 38.8315 18.2343 39.7416 18.1585 40.5759ZM19.5237 46.2641C23.8467 46.2641 28.0181 44.2163 32.7203 42.4719C36.74 41.1826 40.3046 41.8652 44.0967 43.382C48.4956 46.0365 52.7428 46.4916 57.2934 43.382C61.5406 41.1068 66.0911 41.486 70.5658 43.382C74.813 45.4298 79.4394 46.4916 84.0658 46.3399C84.2175 45.354 84.5209 44.5197 84.7484 43.4579C79.7428 43.6096 75.0406 42.6236 70.5658 40.5C66.0911 38.5281 61.5406 38.2247 57.2934 40.5C52.8186 43.6096 48.5714 43.1545 44.0967 40.5C40.3046 38.9832 36.74 38.3006 32.7203 39.5899C27.7147 41.486 23.4675 43.382 18.7652 43.382C18.9169 44.2922 19.2961 45.2023 19.5237 46.2641ZM21.799 51.6489C25.2119 51.1938 28.7765 49.5253 32.7203 48.0085C36.74 46.7191 40.3046 47.4017 44.0967 48.9186C48.4956 51.5731 52.7428 52.0281 57.2934 48.9186C61.5406 46.6433 66.0911 46.9467 70.5658 48.9186C74.1304 50.6629 77.8467 51.6489 81.6389 51.8006C81.9422 50.8905 82.549 49.9804 83.0041 48.9944C78.7569 48.9944 74.5097 47.9326 70.5658 46.0365C66.0911 44.0646 61.5406 43.7613 57.2934 46.0365C52.8186 49.0703 48.5714 48.691 44.0967 46.0365C40.3046 44.5197 36.74 43.8371 32.7203 45.1264C28.2456 46.795 24.4535 48.691 20.4338 48.9186C20.9647 49.8287 21.4956 50.8146 21.799 51.6489ZM26.6529 58.6264C33.0237 65.5281 41.9731 70.0787 51.7568 70.0787C61.2372 70.0787 69.7316 65.9073 76.1024 59.4607C74.2821 59.0056 72.4619 58.1714 70.5658 57.3371C66.0911 55.3652 61.5406 55.0618 57.2934 57.3371C52.8186 60.3708 48.5714 59.9916 44.0967 57.3371C40.3046 55.8203 36.74 55.1377 32.7203 56.427C30.5967 57.1854 28.6248 58.0197 26.6529 58.6264ZM24.9085 56.5028C27.4113 55.8961 29.99 54.7585 32.7962 53.6967C36.8158 52.4073 40.3804 53.0899 44.1726 54.6068C48.5714 57.2613 52.8186 57.6405 57.3692 54.6068C61.6164 52.3315 66.167 52.6349 70.6417 54.6068C73.2203 55.8203 75.799 56.7304 78.3776 57.1096C78.8327 56.1995 79.5153 55.2894 80.1979 54.4551C77.0125 54.1517 73.8271 53.1658 70.6417 51.6489C66.167 49.677 61.6164 49.3736 57.3692 51.6489C52.8945 54.6826 48.6473 54.3034 44.1726 51.6489C40.3804 50.132 36.8158 49.4495 32.7962 50.7388C29.3832 52.0281 26.1978 53.4691 23.24 54.0759C23.8467 54.8343 24.3776 55.6686 24.9085 56.5028Z" fill="#087E53"/>
<path fill-rule="evenodd" clip-rule="evenodd" d="M42.8828 14.5617C43.7171 18.2021 46.675 20.9325 50.4671 20.9325C54.7901 20.9325 58.2031 17.5196 58.2031 13.1965C58.2031 9.40439 55.5486 6.29484 51.9081 5.53641C56.6862 5.53641 60.7059 9.55607 60.7059 14.4859C60.7059 19.4156 56.6862 23.4353 51.6806 23.4353C46.8267 23.4353 42.807 19.4156 42.8828 14.5617ZM43.4137 12.4381L46.675 12.0589L48.0401 15.0926L48.7227 11.9072L52.0598 11.4521L49.2536 9.7836L49.9362 6.5982L47.5092 8.79765L44.6272 7.1291L45.9924 10.1628L43.4137 12.4381Z" fill="#087E53"/>
<path fill-rule="evenodd" clip-rule="evenodd" d="M83.4589 73.2641L84.5207 72.2781L83.4589 73.2641Z" fill="#087E53"/>
<path fill-rule="evenodd" clip-rule="evenodd" d="M20.0544 73.2641L18.9926 72.2781L20.0544 73.2641Z" fill="#087E53"/>
<path d="M14.6696 73.8708L14.9551 73.9449L15.0048 73.7535L14.8466 73.6348L14.6696 73.8708ZM11.7117 73.4158L11.6357 73.1307L11.3799 73.199L11.4202 73.4606L11.7117 73.4158ZM14.1387 75.9186L14.0068 76.1824L14.3328 76.3455L14.4242 75.9926L14.1387 75.9186ZM36.0572 80.6208L36.1315 80.9063L36.1285 80.3346L36.0572 80.6208ZM15.9589 75.6152L16.0302 75.329L15.8489 75.8889L15.9589 75.6152ZM26.8803 79.8624L27.1274 80.0236L27.1566 79.9787L27.1682 79.9264L26.8803 79.8624ZM23.8466 74.4776L24.0016 74.2266L23.6726 74.0234L23.5635 74.3943L23.8466 74.4776ZM25.1359 79.2557L25.2022 79.5431L25.6003 79.4513L25.3879 79.1023L25.1359 79.2557ZM20.9645 81.7585L20.6943 81.6402L20.5489 81.9725L20.9038 82.0471L20.9645 81.7585ZM23.7707 75.6911L24.0427 75.8054L24.1031 75.6617L24.0184 75.5308L23.7707 75.6911ZM20.3578 73.6433V73.3483H20.0282L20.0646 73.6759L20.3578 73.6433ZM22.2539 78.0422L22.2667 78.3369L22.8375 78.3121L22.4867 77.8611L22.2539 78.0422ZM17.855 80.0899L17.6464 79.8813L17.4211 80.1066L17.663 80.3139L17.855 80.0899ZM21.5713 80.9242L21.632 81.2129L21.7833 81.181L21.8432 81.0385L21.5713 80.9242ZM20.5095 74.5534L20.7834 74.663L20.8385 74.5252L20.7607 74.3988L20.5095 74.5534ZM17.855 72.7332L17.8916 72.4405L17.6516 72.4105L17.5751 72.6399L17.855 72.7332ZM19.0685 76.7529L19.1212 77.0431L19.6511 76.9468L19.2846 76.5521L19.0685 76.7529ZM15.3522 79.0281L15.0951 78.8835L14.9698 79.1062L15.1723 79.262L15.3522 79.0281ZM18.5376 79.4832L18.6471 79.7571L18.7645 79.7101L18.8115 79.5928L18.5376 79.4832ZM17.5516 73.4158L17.7945 73.5833L17.9284 73.389L17.7684 73.2157L17.5516 73.4158ZM14.3662 72.7332L14.2873 72.449L14.0712 72.509V72.7332H14.3662ZM16.0348 75.6152L15.8442 75.8404L16.0928 76.0507L16.2776 75.7827L16.0348 75.6152ZM15.7314 78.3456L15.7487 78.64L15.9955 78.6255L16.0244 78.38L15.7314 78.3456ZM12.6977 76.7529L12.4983 76.5354L12.295 76.7218L12.4673 76.9371L12.6977 76.7529ZM16.0348 75.7669L16.3277 75.8014L16.3624 75.5065L16.0673 75.4737L16.0348 75.7669ZM11.1808 39.8933L11.2241 40.1851L11.4122 40.1572L11.4645 39.9743L11.1808 39.8933ZM10.4982 36.9354L10.7464 36.7759L10.5842 36.5236L10.3346 36.69L10.4982 36.9354ZM9.13307 40.1967H8.83807V40.5386L9.1763 40.4885L9.13307 40.1967ZM15.8831 65.7557L15.7259 66.0053L16.1701 65.6875L15.8831 65.7557ZM10.1949 41.7894L10.4819 41.7212L9.89989 41.7934L10.1949 41.7894ZM10.4224 53.545L10.3687 53.835L10.4277 53.846L10.4864 53.833L10.4224 53.545ZM14.1387 48.6152L14.4301 48.6612L14.4872 48.2992L14.1214 48.3207L14.1387 48.6152ZM10.3465 51.6489L10.1028 51.8151L10.3409 52.1643L10.5866 51.8204L10.3465 51.6489ZM6.55441 48.7669L6.57404 48.4725L6.2054 48.448L6.26302 48.8129L6.55441 48.7669ZM13.0769 48.9944V49.2894H13.2297L13.3179 49.1645L13.0769 48.9944ZM13.6078 45.0506L13.8862 44.9531L13.7699 44.6209L13.4632 44.7935L13.6078 45.0506ZM10.3465 48.4635L10.0827 48.5954L10.3398 49.1097L10.6076 48.6009L10.3465 48.4635ZM6.7061 45.2781L6.81302 45.0032L6.52925 44.8928L6.42792 45.1799L6.7061 45.2781ZM7.38868 48.9944L7.13441 49.144L7.21996 49.2894H7.38868V48.9944ZM12.9252 45.5815L12.9336 45.8764L13.0758 45.8723L13.1612 45.7585L12.9252 45.5815ZM13.6078 42.3961L13.8983 42.3448L13.8505 42.0739L13.5769 42.1027L13.6078 42.3961ZM10.3465 45.2023L10.0971 45.3598L10.3919 45.8265L10.6161 45.3221L10.3465 45.2023ZM6.85778 42.5478L6.90628 42.2568L6.63388 42.2114L6.57063 42.4802L6.85778 42.5478ZM7.61621 45.7332L7.38959 45.922L7.48135 46.0322L7.62464 46.0281L7.61621 45.7332ZM12.8494 42.4719L12.7854 42.7599L13.0405 42.8166L13.1275 42.5701L12.8494 42.4719ZM12.1668 39.2107L12.3971 39.0264L12.2482 38.8402L12.0348 38.9469L12.1668 39.2107ZM10.119 41.8652L9.83745 41.7772L9.74172 42.0836L10.055 42.1532L10.119 41.8652ZM7.54037 42.5478L7.28424 42.6941L7.39352 42.8854L7.60793 42.8349L7.54037 42.5478ZM7.91958 39.3624L8.00062 39.0787L7.78993 39.0185L7.67144 39.2029L7.91958 39.3624ZM10.119 41.941L10.1866 42.2282L10.49 42.1568L10.402 41.8578L10.119 41.941ZM4.65834 54.4551L4.83713 54.6897L5.00871 54.559L4.93616 54.3559L4.65834 54.4551ZM2.61059 52.1798L2.74252 51.916L2.47866 51.784L2.34674 52.0479L2.61059 52.1798ZM3.06565 55.6686L2.81138 55.8181L2.97996 56.1047L3.24443 55.9032L3.06565 55.6686ZM10.7258 66.5899L10.8223 66.8687L10.8826 66.8478L10.9289 66.8038L10.7258 66.5899ZM11.4842 60.4467L11.7591 60.3398L11.6149 59.9688L11.3019 60.2147L11.4842 60.4467ZM9.66396 64.9972L9.54105 65.2654L9.92564 65.4417L9.95809 65.0199L9.66396 64.9972ZM4.88587 64.4663L4.74705 64.206L4.42162 64.3796L4.66244 64.659L4.88587 64.4663ZM10.8016 61.3568L10.9475 61.6132L11.0886 61.5329L11.0963 61.3708L10.8016 61.3568ZM9.20891 57.6405L9.38811 57.4062L9.11831 57.1998L8.9518 57.4959L9.20891 57.6405ZM8.14711 62.2669L7.98958 62.5163L8.46873 62.8189L8.44177 62.2529L8.14711 62.2669ZM3.36902 61.2809L3.30824 60.9923L2.99596 61.058L3.08601 61.3642L3.36902 61.2809ZM5.87183 64.163L5.74622 64.4299L5.88473 64.4951L6.01776 64.4193L5.87183 64.163ZM8.90554 58.4748L9.05418 58.7296L9.19014 58.6503L9.19996 58.4932L8.90554 58.4748ZM7.84374 55.2894L8.05233 55.0808L7.86727 54.8957L7.66148 55.0574L7.84374 55.2894ZM6.40273 59.309L6.25492 59.5643L6.72445 59.8362L6.69736 59.2943L6.40273 59.309ZM2.07969 58.7781L1.96737 58.5054L1.72172 58.6065L1.79668 58.8614L2.07969 58.7781ZM4.35497 61.1293L4.26169 61.4091L4.38832 61.4513L4.50361 61.3841L4.35497 61.1293ZM7.237 55.7444L7.3278 56.0251L7.55828 55.9505L7.52998 55.71L7.237 55.7444ZM5.1134 53.2416L5.23164 52.9713L5.01433 52.8763L4.87482 53.0681L5.1134 53.2416ZM4.65834 56.5787L4.36783 56.63L4.42673 56.9637L4.74915 56.8594L4.65834 56.5787ZM2.68643 58.5506L2.52691 58.7988L2.72691 58.9273L2.89503 58.7592L2.68643 58.5506ZM1.32126 55.5169L1.28227 55.2245L1.02626 55.2586V55.5169H1.32126ZM4.50666 56.7304L4.71525 56.939L4.92385 56.7304L4.71525 56.5218L4.50666 56.7304ZM34.6921 76.3737L34.6205 76.6598L34.8094 76.103L34.6921 76.3737ZM17.0207 68.7135L16.97 68.4229L16.9034 68.9842L17.0207 68.7135ZM40.987 77.4354L41.1541 77.6785L41.6205 77.3579L41.0906 77.1592L40.987 77.4354ZM9.73981 70.0029L9.51688 69.8097L9.78039 70.295L9.73981 70.0029ZM39.7735 78.2697L39.8051 78.563L39.8792 78.555L39.9407 78.5128L39.7735 78.2697ZM30.9758 81.6826L31.0342 81.3935L30.7717 81.8956L30.9758 81.6826ZM51.8325 76.7529L51.8072 77.0468L51.9775 76.496L51.8325 76.7529ZM88.8438 73.8708L88.6668 73.6348L88.5086 73.7535L88.5582 73.9449L88.8438 73.8708ZM91.8016 73.4158L92.0932 73.4606L92.1335 73.199L91.8777 73.1307L91.8016 73.4158ZM89.3747 75.9186L89.0891 75.9926L89.1806 76.3455L89.5066 76.1824L89.3747 75.9186ZM67.4561 80.6208L67.3848 80.3346L67.3818 80.9063L67.4561 80.6208ZM87.5545 75.6152L87.6645 75.8889L87.4832 75.329L87.5545 75.6152ZM76.6331 79.8624L76.3451 79.9264L76.3567 79.9787L76.386 80.0236L76.6331 79.8624ZM79.6668 74.4776L79.945 74.3794L79.8232 74.0343L79.5118 74.2266L79.6668 74.4776ZM78.3775 79.2557L78.1255 79.1023L77.9131 79.4513L78.3112 79.5431L78.3775 79.2557ZM82.5488 81.7585L82.6096 82.0471L82.9644 81.9725L82.8191 81.6402L82.5488 81.7585ZM79.7427 75.6911L79.495 75.5308L79.4103 75.6617L79.4707 75.8054L79.7427 75.6911ZM83.1556 73.6433L83.4488 73.6759L83.4852 73.3483H83.1556V73.6433ZM81.2595 78.0422L81.0267 77.8611L80.6759 78.3121L81.2467 78.3369L81.2595 78.0422ZM85.6584 80.0899L85.8504 80.3139L86.0922 80.1066L85.867 79.8813L85.6584 80.0899ZM81.9421 80.9242L81.6701 81.0385L81.73 81.181L81.8813 81.2129L81.9421 80.9242ZM83.0039 74.5534L82.7613 74.3855L82.6711 74.5158L82.73 74.663L83.0039 74.5534ZM85.6584 72.7332L85.9383 72.6399L85.8618 72.4105L85.6218 72.4405L85.6584 72.7332ZM84.4449 76.7529L84.2287 76.5521L83.8623 76.9468L84.3921 77.0431L84.4449 76.7529ZM88.1612 79.0281L88.3411 79.262L88.5436 79.1062L88.4183 78.8835L88.1612 79.0281ZM84.9758 79.4832L84.7019 79.5928L84.7489 79.7101L84.8662 79.7571L84.9758 79.4832ZM85.9618 73.4158L85.745 73.2157L85.585 73.389L85.7189 73.5833L85.9618 73.4158ZM89.1472 72.7332H89.4422V72.509L89.2261 72.449L89.1472 72.7332ZM87.4786 75.6152L87.2358 75.7827L87.4206 76.0507L87.6692 75.8404L87.4786 75.6152ZM87.782 78.3456L87.489 78.38L87.5179 78.6255L87.7647 78.64L87.782 78.3456ZM90.8157 76.7529L91.0461 76.9371L91.2183 76.7218L91.015 76.5354L90.8157 76.7529ZM87.4786 75.7669L87.446 75.4737L87.1509 75.5065L87.1856 75.8014L87.4786 75.7669ZM92.3326 39.8933L92.0489 39.9743L92.1012 40.1572L92.2893 40.1851L92.3326 39.8933ZM93.0151 36.9354L93.1788 36.69L92.9292 36.5236L92.767 36.7759L93.0151 36.9354ZM94.3803 40.1967L94.3371 40.4885L94.6753 40.5386V40.1967H94.3803ZM87.6303 65.7557L87.3433 65.6875L87.7875 66.0053L87.6303 65.7557ZM93.3185 41.7894L93.6135 41.7934L93.0315 41.7212L93.3185 41.7894ZM93.091 53.545L93.027 53.833L93.0856 53.846L93.1447 53.835L93.091 53.545ZM89.3747 48.6152L89.392 48.3207L89.0261 48.2992L89.0833 48.6612L89.3747 48.6152ZM93.1668 51.6489L92.9268 51.8204L93.1724 52.1643L93.4105 51.8151L93.1668 51.6489ZM96.959 48.7669L97.2503 48.8129L97.308 48.448L96.9393 48.4725L96.959 48.7669ZM90.4365 48.9944L90.1955 49.1645L90.2836 49.2894H90.4365V48.9944ZM89.9056 45.0506L90.0502 44.7935L89.7434 44.6209L89.6271 44.9531L89.9056 45.0506ZM93.1668 48.4635L92.9058 48.6009L93.1735 49.1097L93.4307 48.5954L93.1668 48.4635ZM96.8073 45.2781L97.0855 45.1799L96.9841 44.8928L96.7004 45.0032L96.8073 45.2781ZM96.1247 48.9944V49.2894H96.2934L96.379 49.144L96.1247 48.9944ZM90.5882 45.5815L90.3522 45.7585L90.4375 45.8723L90.5797 45.8764L90.5882 45.5815ZM89.9056 42.3961L89.9365 42.1027L89.6629 42.0739L89.6151 42.3448L89.9056 42.3961ZM93.1668 45.2023L92.8972 45.3221L93.1214 45.8265L93.4162 45.3598L93.1668 45.2023ZM96.6556 42.5478L96.9427 42.4802L96.8795 42.2114L96.6071 42.2568L96.6556 42.5478ZM95.8972 45.7332L95.8887 46.0281L96.032 46.0322L96.1238 45.922L95.8972 45.7332ZM90.664 42.4719L90.3858 42.5701L90.4728 42.8166L90.728 42.7599L90.664 42.4719ZM91.3466 39.2107L91.4785 38.9469L91.2652 38.8402L91.1162 39.0264L91.3466 39.2107ZM93.3943 41.8652L93.4583 42.1532L93.7716 42.0836L93.6759 41.7772L93.3943 41.8652ZM95.973 42.5478L95.9054 42.8349L96.1198 42.8854L96.2291 42.6941L95.973 42.5478ZM95.5938 39.3624L95.8419 39.2029L95.7234 39.0185L95.5127 39.0787L95.5938 39.3624ZM93.3943 41.941L93.1113 41.8578L93.0234 42.1568L93.3268 42.2282L93.3943 41.941ZM98.855 54.4551L98.5772 54.3559L98.5047 54.559L98.6763 54.6897L98.855 54.4551ZM100.903 52.1798L101.167 52.0479L101.031 51.7759L100.763 51.9201L100.903 52.1798ZM100.448 55.6686L100.269 55.9032L100.533 56.1047L100.702 55.8181L100.448 55.6686ZM92.7876 66.5899L92.5844 66.8038L92.6307 66.8478L92.6911 66.8687L92.7876 66.5899ZM92.0292 60.4467L92.2114 60.2147L91.8985 59.9688L91.7542 60.3398L92.0292 60.4467ZM93.8494 64.9972L93.5553 65.0199L93.5877 65.4417L93.9723 65.2654L93.8494 64.9972ZM98.6275 64.4663L98.8471 64.6633L99.0983 64.3831L98.7663 64.206L98.6275 64.4663ZM92.7118 61.3568L92.4171 61.3708L92.4248 61.5329L92.5658 61.6132L92.7118 61.3568ZM94.3045 57.6405L94.5616 57.4959L94.3951 57.1998L94.1253 57.4062L94.3045 57.6405ZM95.3663 62.2669L95.0716 62.2529L95.0446 62.8189L95.5238 62.5163L95.3663 62.2669ZM100.144 61.2809L100.427 61.3642L100.517 61.058L100.205 60.9923L100.144 61.2809ZM97.6416 64.163L97.4956 64.4193L97.6287 64.4951L97.7672 64.4299L97.6416 64.163ZM94.6078 58.4748L94.3134 58.4932L94.3232 58.6503L94.4592 58.7296L94.6078 58.4748ZM95.6696 55.2894L95.8519 55.0574L95.6461 54.8957L95.461 55.0808L95.6696 55.2894ZM97.1106 59.309L96.816 59.2943L96.7889 59.8362L97.2584 59.5643L97.1106 59.309ZM101.434 58.7781L101.717 58.8614L101.792 58.6065L101.546 58.5054L101.434 58.7781ZM99.1584 61.1293L99.0098 61.3841L99.125 61.4513L99.2517 61.4091L99.1584 61.1293ZM96.2764 55.7444L95.9834 55.71L95.9551 55.9505L96.1856 56.0251L96.2764 55.7444ZM98.4 53.2416L98.6385 53.0681L98.499 52.8763L98.2817 52.9713L98.4 53.2416ZM98.855 56.5787L98.7642 56.8594L99.0866 56.9637L99.1455 56.63L98.855 56.5787ZM100.751 58.5506L100.542 58.7592L100.711 58.9273L100.911 58.7988L100.751 58.5506ZM102.116 55.5169H102.411V55.2586L102.155 55.2245L102.116 55.5169ZM98.9309 56.7304L98.7223 56.5218L98.5137 56.7304L98.7223 56.939L98.9309 56.7304ZM68.8213 76.3737L68.704 76.103L68.8928 76.6598L68.8213 76.3737ZM86.4927 68.7135L86.61 68.9842L86.5434 68.4229L86.4927 68.7135ZM62.5264 77.4354L62.4228 77.1592L61.8929 77.3579L62.3592 77.6785L62.5264 77.4354ZM93.7736 70.0029L93.733 70.295L93.9965 69.8097L93.7736 70.0029ZM63.7398 78.2697L63.5727 78.5128L63.6341 78.555L63.7083 78.563L63.7398 78.2697ZM56.8382 78.2697L56.8939 78.5594L56.8382 77.9747V78.2697ZM51.8325 79.7107L51.6945 79.9714L51.8109 80.0331L51.9345 79.9875L51.8325 79.7107ZM46.6752 78.2697V77.9747L46.6267 78.5607L46.6752 78.2697ZM58.5067 79.1798L58.5595 79.4701L58.5067 78.8848V79.1798ZM53.5769 80.545L53.4795 80.2666L53.4562 80.8142L53.5769 80.545ZM59.341 84.413L59.5285 84.6407L59.791 84.4245L59.5399 84.1951L59.341 84.413ZM58.0516 85.4748L57.843 85.6834L58.0324 85.8728L58.2392 85.7025L58.0516 85.4748ZM51.8325 81.3034L51.9436 81.0301L51.8264 80.9825L51.7111 81.0346L51.8325 81.3034ZM45.4617 85.4748L45.2742 85.7025L45.4766 85.8692L45.6659 85.6878L45.4617 85.4748ZM44.1724 84.413L43.969 84.1994L43.7278 84.429L43.9849 84.6407L44.1724 84.413ZM49.5572 80.545L49.6892 80.8089L50.2689 80.519L49.6696 80.2722L49.5572 80.545ZM45.0067 79.1798V78.8848L44.9539 79.4701L45.0067 79.1798ZM72.5376 81.6826L72.7417 81.8956L72.4792 81.3935L72.5376 81.6826ZM51.6808 76.7529L51.5358 76.496L51.7061 77.0468L51.6808 76.7529ZM97.2503 44.7932L97.4779 43.3522L96.8951 43.2602L96.6676 44.7012L97.2503 44.7932ZM97.1779 42.1808L97.2537 40.3606L96.6642 40.3361L96.5884 42.1563L97.1779 42.1808ZM96.0395 38.9587L95.8878 37.1384L95.2998 37.1874L95.4515 39.0077L96.0395 38.9587ZM93.2316 36.5164L93.0041 34.8478L92.4195 34.9275L92.647 36.5961L93.2316 36.5164ZM91.717 38.5126L91.6412 37.0716L91.052 37.1026L91.1278 38.5436L91.717 38.5126ZM90.115 41.9418L89.7358 40.5008L89.1652 40.6509L89.5445 42.092L90.115 41.9418ZM89.8821 44.5781L89.427 43.2129L88.8673 43.3995L89.3224 44.7647L89.8821 44.5781ZM100.732 61.1862L101.946 59.9727L101.528 59.5555L100.315 60.769L100.732 61.1862ZM101.986 58.7848L103.048 57.1163L102.55 56.7995L101.488 58.4681L101.986 58.7848ZM102.61 55.4162L103.369 53.8235L102.836 53.5698L102.077 55.1625L102.61 55.4162ZM101.403 51.9123L102.086 50.2438L101.54 50.0204L100.857 51.6889L101.403 51.9123ZM99.1161 52.9239L99.8745 51.4829L99.3524 51.2082L98.594 52.6492L99.1161 52.9239ZM96.0114 55.1895L96.9215 53.2934L96.3896 53.0381L95.4795 54.9342L96.0114 55.1895ZM94.443 57.2382L94.7464 55.5697L94.1659 55.4641L93.8625 57.1327L94.443 57.2382ZM86.2533 80.3779L87.6185 80.0746L87.4905 79.4986L86.1253 79.802L86.2533 80.3779ZM88.7132 79.2309L90.4576 78.6242L90.2637 78.0669L88.5193 78.6737L88.7132 79.2309ZM91.1653 76.8697L92.8338 76.1113L92.5897 75.5742L90.9211 76.3326L91.1653 76.8697ZM92.3287 73.3677L93.7697 72.5334L93.4741 72.0228L92.0331 72.8571L92.3287 73.3677ZM89.8521 72.7838L91.1414 72.3288L90.945 71.7724L89.6557 72.2275L89.8521 72.7838ZM86.0719 72.6588L87.2854 71.6728L86.9134 71.2149L85.6999 72.2009L86.0719 72.6588ZM83.6597 73.4803L84.7215 72.4943L84.32 72.062L83.2582 73.0479L83.6597 73.4803ZM14.8466 73.6348C14.3556 73.2666 13.8542 73.0552 13.3161 72.9813C12.7816 72.908 12.2283 72.9727 11.6357 73.1307L11.7877 73.7008C12.3328 73.5555 12.8034 73.5065 13.2359 73.5658C13.6648 73.6247 14.0735 73.7925 14.4926 74.1068L14.8466 73.6348ZM11.4202 73.4606C11.5952 74.5987 12.6266 75.4924 14.0068 76.1824L14.2706 75.6547C12.9204 74.9797 12.1316 74.2047 12.0033 73.3709L11.4202 73.4606ZM14.4242 75.9926L14.9551 73.9449L14.384 73.7968L13.8531 75.8446L14.4242 75.9926ZM35.9829 80.3354C33.2934 81.0354 30.3608 80.6174 27.0621 79.5995C23.7595 78.5804 20.1411 76.978 16.0689 75.3415L15.8489 75.8889C19.8919 77.5137 23.5544 79.1346 26.8881 80.1633C30.2256 81.1931 33.2846 81.6473 36.1315 80.9063L35.9829 80.3354ZM15.8876 75.9015L35.9859 80.9071L36.1285 80.3346L16.0302 75.329L15.8876 75.9015ZM27.1682 79.9264C27.41 78.8384 27.2899 77.816 26.7592 76.8566C26.233 75.9054 25.3155 75.0382 24.0016 74.2266L23.6915 74.7286C24.9562 75.5097 25.7832 76.3111 26.2429 77.1422C26.6981 77.965 26.8056 78.8387 26.5923 79.7984L27.1682 79.9264ZM23.5635 74.3943C23.3522 75.1128 23.4218 75.9329 23.6676 76.7783C23.9141 77.6263 24.3444 78.5227 24.8839 79.4091L25.3879 79.1023C24.8656 78.2443 24.4616 77.3963 24.2341 76.6136C24.0059 75.8284 23.9617 75.1317 24.1296 74.5608L23.5635 74.3943ZM25.0695 78.9682C24.0653 79.2 23.1259 79.5309 22.3635 79.9665C21.604 80.4005 20.9948 80.9532 20.6943 81.6402L21.2348 81.8767C21.4651 81.3502 21.9557 80.8791 22.6562 80.4788C23.3538 80.0802 24.2346 79.7664 25.2022 79.5431L25.0695 78.9682ZM20.9038 82.0471C22.3802 82.358 23.6311 82.325 24.6715 81.9714C25.7165 81.6163 26.5261 80.9455 27.1274 80.0236L26.6332 79.7013C26.0968 80.5237 25.3896 81.1043 24.4816 81.4128C23.569 81.7229 22.4309 81.7657 21.0253 81.4698L20.9038 82.0471ZM24.0184 75.5308C23.5877 74.8653 23.1051 74.3163 22.5073 73.935C21.9054 73.551 21.2046 73.3483 20.3578 73.3483V73.9383C21.1037 73.9383 21.6922 74.1148 22.19 74.4324C22.6919 74.7526 23.1194 75.2275 23.523 75.8513L24.0184 75.5308ZM20.0646 73.6759C20.223 75.1015 20.9299 76.8205 22.021 78.2233L22.4867 77.8611C21.4542 76.5336 20.7959 74.9154 20.651 73.6107L20.0646 73.6759ZM22.241 77.7475C20.4035 77.8274 18.6689 78.8588 17.6464 79.8813L18.0636 80.2985C19.013 79.3492 20.6155 78.4087 22.2667 78.3369L22.241 77.7475ZM17.663 80.3139C18.8067 81.2942 20.1184 81.5315 21.632 81.2129L21.5105 80.6355C20.1421 80.9236 19.0269 80.7059 18.047 79.866L17.663 80.3139ZM21.8432 81.0385L24.0427 75.8054L23.4988 75.5768L21.2993 80.8099L21.8432 81.0385ZM20.7607 74.3988C20.1192 73.3564 19.2146 72.6059 17.8916 72.4405L17.8184 73.0259C18.9224 73.1639 19.6862 73.7785 20.2582 74.708L20.7607 74.3988ZM17.5751 72.6399C17.0713 74.1514 17.8312 75.854 18.8523 76.9536L19.2846 76.5521C18.3338 75.5282 17.7286 74.0453 18.1348 72.8265L17.5751 72.6399ZM19.0157 76.4626C17.2983 76.7749 15.8364 77.5655 15.0951 78.8835L15.6093 79.1728C16.2331 78.0638 17.5016 77.3376 19.1212 77.0431L19.0157 76.4626ZM15.1723 79.262C16.2393 80.0828 17.4109 80.2516 18.6471 79.7571L18.428 79.2093C17.3889 79.6249 16.4369 79.4904 15.532 78.7943L15.1723 79.262ZM18.8115 79.5928L20.7834 74.663L20.2356 74.4439L18.2637 79.3736L18.8115 79.5928ZM17.7684 73.2157C17.2799 72.6865 16.7707 72.3813 16.1833 72.2725C15.6061 72.1656 14.986 72.2549 14.2873 72.449L14.4452 73.0174C15.1116 72.8323 15.6291 72.7699 16.0758 72.8526C16.5123 72.9334 16.9132 73.1591 17.3348 73.6159L17.7684 73.2157ZM14.0712 72.7332C14.0712 73.8457 14.8299 74.9822 15.8442 75.8404L16.2253 75.39C15.2677 74.5797 14.6612 73.5926 14.6612 72.7332H14.0712ZM16.2776 75.7827L17.7945 73.5833L17.3088 73.2483L15.7919 75.4477L16.2776 75.7827ZM15.7141 78.0511C15.1178 78.0861 14.6433 77.9812 14.2143 77.7457C13.779 77.5067 13.3715 77.1229 12.928 76.5686L12.4673 76.9371C12.934 77.5205 13.3986 77.9709 13.9304 78.2629C14.4684 78.5582 15.0557 78.6808 15.7487 78.64L15.7141 78.0511ZM12.897 76.9703C13.735 76.2022 14.7081 75.9163 16.0022 76.0601L16.0673 75.4737C14.6311 75.3141 13.4806 75.635 12.4983 76.5354L12.897 76.9703ZM15.7418 75.7324L15.4384 78.3111L16.0244 78.38L16.3277 75.8014L15.7418 75.7324ZM11.4645 39.9743C11.8024 38.7916 11.4467 37.8653 10.7464 36.7759L10.2501 37.0949C10.9149 38.1291 11.166 38.8714 10.8972 39.8122L11.4645 39.9743ZM10.3346 36.69C9.30732 37.3748 8.83807 38.7084 8.83807 40.1967H9.42807C9.42807 38.8029 9.86893 37.7095 10.6619 37.1809L10.3346 36.69ZM9.1763 40.4885L11.2241 40.1851L11.1376 39.6015L9.08984 39.9048L9.1763 40.4885ZM16.0402 65.506C13.0739 63.6383 11.7133 60.5361 11.0837 56.4578C10.4526 52.3702 10.5659 47.379 10.4898 41.7853L9.89989 41.7934C9.97547 47.3486 9.86125 52.4065 10.5006 56.5479C11.1414 60.6986 12.549 64.005 15.7259 66.0053L16.0402 65.506ZM9.90784 41.8575L15.596 65.8238L16.1701 65.6875L10.4819 41.7212L9.90784 41.8575ZM10.4864 53.833C11.5755 53.5909 12.4528 53.0418 13.1131 52.1681C13.7685 51.301 14.198 50.1307 14.4301 48.6612L13.8473 48.5692C13.6243 49.9817 13.2195 51.0488 12.6425 51.8123C12.0704 52.5693 11.317 53.044 10.3584 53.257L10.4864 53.833ZM14.1214 48.3207C13.3831 48.3641 12.6591 48.7717 11.9943 49.3388C11.3246 49.91 10.683 50.6704 10.1065 51.4774L10.5866 51.8204C11.1478 51.0347 11.7576 50.3161 12.3772 49.7877C13.0017 49.255 13.605 48.9421 14.156 48.9097L14.1214 48.3207ZM10.5903 51.4827C10.0056 50.6252 9.32049 49.8993 8.62855 49.3754C7.94219 48.8558 7.22371 48.5159 6.57404 48.4725L6.53479 49.0612C7.02276 49.0938 7.63152 49.3606 8.27241 49.8458C8.90772 50.3269 9.54988 51.0041 10.1028 51.8151L10.5903 51.4827ZM6.26302 48.8129C6.49607 50.2889 6.96641 51.4436 7.66429 52.2831C8.36596 53.1271 9.28251 53.6339 10.3687 53.835L10.4761 53.2549C9.51452 53.0768 8.7246 52.6356 8.11799 51.9059C7.50759 51.1717 7.06781 50.1269 6.8458 48.7209L6.26302 48.8129ZM13.3179 49.1645C13.7925 48.4922 14.0818 47.8413 14.1751 47.1471C14.2683 46.4534 14.1622 45.7417 13.8862 44.9531L13.3294 45.148C13.5842 45.8763 13.6678 46.4919 13.5903 47.0686C13.5129 47.6447 13.2714 48.2073 12.8359 48.8243L13.3179 49.1645ZM13.4632 44.7935C12.1993 45.5044 10.8699 46.8357 10.0855 48.3261L10.6076 48.6009C11.34 47.2093 12.5893 45.9619 13.7524 45.3077L13.4632 44.7935ZM10.6104 48.3316C9.81184 46.7345 8.2293 45.554 6.81302 45.0032L6.59918 45.5531C7.91323 46.0641 9.3644 47.1589 10.0827 48.5954L10.6104 48.3316ZM6.42792 45.1799C5.92893 46.5937 6.36135 47.8298 7.13441 49.144L7.64295 48.8448C6.89915 47.5804 6.57315 46.5412 6.98428 45.3763L6.42792 45.1799ZM7.38868 49.2894H13.0769V48.6994H7.38868V49.2894ZM13.1612 45.7585C13.8977 44.7765 14.1385 43.706 13.8983 42.3448L13.3173 42.4474C13.5321 43.6648 13.3179 44.5662 12.6892 45.4045L13.1612 45.7585ZM13.5769 42.1027C11.9853 42.2703 10.7038 43.6721 10.077 45.0825L10.6161 45.3221C11.2028 44.0022 12.3483 42.8253 13.6387 42.6895L13.5769 42.1027ZM10.596 45.0448C9.65898 43.5612 8.38268 42.5029 6.90628 42.2568L6.80929 42.8388C8.06323 43.0478 9.2139 43.9613 10.0971 45.3598L10.596 45.0448ZM6.57063 42.4802C6.40973 43.164 6.40684 43.7815 6.55294 44.3555C6.69883 44.9286 6.98891 45.4412 7.38959 45.922L7.84284 45.5443C7.48509 45.115 7.24427 44.6796 7.12471 44.2099C7.00536 43.741 7.00246 43.2209 7.14494 42.6153L6.57063 42.4802ZM7.62464 46.0281L12.9336 45.8764L12.9168 45.2866L7.60779 45.4383L7.62464 46.0281ZM13.1275 42.5701C13.3673 41.8907 13.4372 41.3018 13.308 40.7204C13.1801 40.145 12.8643 39.6104 12.3971 39.0264L11.9364 39.395C12.3793 39.9486 12.6324 40.4 12.732 40.8484C12.8304 41.291 12.7864 41.7638 12.5712 42.3738L13.1275 42.5701ZM12.0348 38.9469C11.0356 39.4465 10.2341 40.508 9.83745 41.7772L10.4006 41.9532C10.7624 40.7954 11.4777 39.8851 12.2987 39.4746L12.0348 38.9469ZM10.055 42.1532L12.7854 42.7599L12.9134 42.184L10.183 41.5772L10.055 42.1532ZM7.7965 42.4014C7.2713 41.4823 7.50792 40.5483 8.16773 39.5219L7.67144 39.2029C6.96607 40.3001 6.59595 41.4896 7.28424 42.6941L7.7965 42.4014ZM7.83854 39.646C8.76512 39.9108 9.47203 40.7867 9.83601 42.0243L10.402 41.8578C10.0076 40.5167 9.19763 39.4207 8.00062 39.0787L7.83854 39.646ZM10.0515 41.6539L7.4728 42.2606L7.60793 42.8349L10.1866 42.2282L10.0515 41.6539ZM4.93616 54.3559C4.53047 53.2199 3.86994 52.4797 2.74252 51.916L2.47866 52.4437C3.47484 52.9418 4.02779 53.5667 4.38053 54.5543L4.93616 54.3559ZM2.34674 52.0479C1.8301 53.0812 2.02496 54.4812 2.81138 55.8181L3.31992 55.519C2.58948 54.2773 2.48096 53.0987 2.87444 52.3117L2.34674 52.0479ZM3.24443 55.9032L4.83713 54.6897L4.47956 54.2204L2.88687 55.4339L3.24443 55.9032ZM12.038 67.7992L4.90878 56.3469L4.40791 56.6588L11.5371 68.111L12.038 67.7992ZM10.9289 66.8038C11.7328 66.0401 12.2224 65.1262 12.3645 64.0401C12.5057 62.9609 12.3012 61.7337 11.7591 60.3398L11.2093 60.5536C11.729 61.89 11.9037 63.0139 11.7795 63.9635C11.6561 64.9061 11.2356 65.6987 10.5226 66.3761L10.9289 66.8038ZM11.3019 60.2147C10.1396 61.128 9.52325 62.9802 9.36983 64.9746L9.95809 65.0199C10.108 63.0705 10.7052 61.4339 11.6664 60.6786L11.3019 60.2147ZM9.78688 64.7291C8.85716 64.3029 7.91777 64.0077 7.05595 63.8987C6.19777 63.7902 5.38967 63.8633 4.74705 64.206L5.02469 64.7266C5.51972 64.4626 6.19055 64.384 6.98194 64.4841C7.76971 64.5837 8.65054 64.8573 9.54105 65.2654L9.78688 64.7291ZM4.66244 64.659C5.63361 65.7855 6.64136 66.5243 7.68004 66.8874C8.72356 67.2521 9.77796 67.2302 10.8223 66.8687L10.6293 66.3112C9.70166 66.6323 8.78414 66.6483 7.87471 66.3304C6.96044 66.0109 6.0342 65.3466 5.10931 64.2737L4.66244 64.659ZM11.0963 61.3708C11.1354 60.5492 11.0586 59.82 10.7905 59.1601C10.521 58.4967 10.0673 57.9255 9.38811 57.4062L9.02971 57.8748C9.63989 58.3414 10.0204 58.832 10.2439 59.3821C10.4688 59.9358 10.5437 60.5717 10.5069 61.3428L11.0963 61.3708ZM8.9518 57.4959C8.24177 58.7581 7.77399 60.6334 7.85244 62.2809L8.44177 62.2529C8.36854 60.715 8.81087 58.9498 9.46602 57.7851L8.9518 57.4959ZM8.30464 62.0175C6.80754 61.0719 4.83397 60.6711 3.30824 60.9923L3.42979 61.5696C4.78608 61.2841 6.60465 61.6416 7.98958 62.5163L8.30464 62.0175ZM3.08601 61.3642C3.48942 62.7358 4.38189 63.7878 5.74622 64.4299L5.99744 63.896C4.78311 63.3246 4.00704 62.4047 3.65203 61.1977L3.08601 61.3642ZM6.01776 64.4193L10.9475 61.6132L10.6557 61.1004L5.72589 63.9066L6.01776 64.4193ZM9.19996 58.4932C9.27915 57.2261 9.04115 56.0696 8.05233 55.0808L7.63514 55.498C8.46656 56.3294 8.6836 57.2965 8.61111 58.4564L9.19996 58.4932ZM7.66148 55.0574C6.49145 55.9767 6.03005 57.7627 6.1081 59.3238L6.69736 59.2943C6.62372 57.8216 7.07243 56.2706 8.026 55.5213L7.66148 55.0574ZM6.55053 59.0537C5.05455 58.1876 3.36439 57.9301 1.96737 58.5054L2.19201 59.0509C3.37364 58.5644 4.86888 58.7619 6.25492 59.5643L6.55053 59.0537ZM1.79668 58.8614C1.99775 59.545 2.30452 60.0838 2.72433 60.5036C3.14345 60.9227 3.66078 61.2088 4.26169 61.4091L4.44826 60.8494C3.91152 60.6705 3.48082 60.4257 3.14152 60.0864C2.80289 59.7478 2.54084 59.3006 2.3627 58.6949L1.79668 58.8614ZM4.50361 61.3841L9.05418 58.7296L8.7569 58.2199L4.20633 60.8744L4.50361 61.3841ZM7.52998 55.71C7.44758 55.0096 7.19687 54.458 6.79212 54.0107C6.39254 53.569 5.85734 53.2451 5.23164 52.9713L4.99516 53.5119C5.58294 53.769 6.0337 54.0518 6.35462 54.4065C6.67039 54.7555 6.87473 55.1899 6.94402 55.7789L7.52998 55.71ZM4.87482 53.0681C4.19679 54.0004 4.13568 55.3144 4.36783 56.63L4.94885 56.5274C4.72595 55.2643 4.81653 54.1514 5.35197 53.4151L4.87482 53.0681ZM4.74915 56.8594L7.3278 56.0251L7.14619 55.4637L4.56754 56.298L4.74915 56.8594ZM2.84596 58.3025C2.36327 57.9922 2.06265 57.6211 1.87813 57.1766C1.69061 56.7249 1.61626 56.1809 1.61626 55.5169H1.02626C1.02626 56.2181 1.1036 56.8496 1.33322 57.4028C1.56583 57.9632 1.9478 58.4265 2.52691 58.7988L2.84596 58.3025ZM1.36025 55.8093C2.38936 55.6721 3.43937 56.0803 4.29806 56.939L4.71525 56.5218C3.75372 55.5603 2.52845 55.0583 1.28227 55.2245L1.36025 55.8093ZM4.29806 56.5218L2.47784 58.342L2.89503 58.7592L4.71525 56.939L4.29806 56.5218ZM34.7636 76.0875C31.7843 75.3426 28.6113 73.2533 25.5242 71.4087C23.9923 70.4933 22.484 69.6411 21.0536 69.0711C19.6255 68.502 18.2426 68.2007 16.97 68.4229L17.0714 69.0041C18.1878 68.8092 19.45 69.0672 20.8352 69.6192C22.2181 70.1703 23.6913 71.0008 25.2216 71.9152C28.2588 73.73 31.5325 75.8878 34.6205 76.6598L34.7636 76.0875ZM16.9034 68.9842L34.5747 76.6443L34.8094 76.103L17.138 68.4429L16.9034 68.9842ZM41.0906 77.1592C37.1744 75.6907 33.8856 73.7879 30.9954 71.9304C28.1187 70.0816 25.6017 68.2524 23.2875 66.9763C20.9647 65.6954 18.7767 64.9289 16.5229 65.2407C14.2651 65.5529 12.0062 66.9373 9.51688 69.8097L9.96274 70.1961C12.4032 67.3802 14.5431 66.1101 16.6037 65.8251C18.6682 65.5396 20.7178 66.233 23.0026 67.4929C25.2958 68.7575 27.756 70.5498 30.6764 72.4268C33.5835 74.2951 36.912 76.2224 40.8834 77.7117L41.0906 77.1592ZM9.78039 70.295C15.1391 69.5508 20.1035 71.8363 25.0258 74.2309C29.9103 76.6071 34.7731 79.1049 39.8051 78.563L39.7419 77.9764C34.9144 78.4963 30.2211 76.1022 25.2839 73.7004C20.3845 71.3169 15.2618 68.9381 9.69923 69.7107L9.78039 70.295ZM39.9407 78.5128L41.1541 77.6785L40.8199 77.1924L39.6064 78.0266L39.9407 78.5128ZM30.9173 81.9718C32.7901 82.3503 34.4679 81.8621 36.056 81.0354C37.6282 80.2169 39.166 79.0342 40.7134 78.0135C42.2791 76.9807 43.8825 76.0915 45.6601 75.7765C47.4262 75.4636 49.3907 75.7132 51.6875 77.0098L51.9775 76.496C49.5721 75.138 47.4695 74.8567 45.5572 75.1956C43.6565 75.5324 41.9702 76.4777 40.3885 77.521C38.7884 78.5765 37.3209 79.7117 35.7836 80.5121C34.2621 81.3041 32.726 81.7355 31.0342 81.3935L30.9173 81.9718ZM51.8578 76.459C50.0044 76.2995 48.2099 77.0036 46.4758 77.9921C45.6064 78.4877 44.743 79.0603 43.8876 79.6419C43.0292 80.2255 42.1816 80.816 41.331 81.358C39.6258 82.4444 37.9567 83.3024 36.2837 83.4773C34.6338 83.6498 32.9446 83.1609 31.1799 81.4697L30.7717 81.8956C32.6474 83.6932 34.5038 84.2566 36.3451 84.0641C38.1632 83.874 39.9307 82.9497 41.648 81.8556C42.5085 81.3073 43.3686 80.7081 44.2193 80.1298C45.073 79.5494 45.9202 78.9879 46.768 78.5047C48.4681 77.5355 50.1339 76.9028 51.8072 77.0468L51.8578 76.459ZM89.0208 74.1068C89.4399 73.7925 89.8486 73.6247 90.2775 73.5658C90.71 73.5065 91.1806 73.5555 91.7256 73.7008L91.8777 73.1307C91.2851 72.9727 90.7318 72.908 90.1973 72.9813C89.6592 73.0552 89.1578 73.2666 88.6668 73.6348L89.0208 74.1068ZM91.5101 73.3709C91.3818 74.2047 90.5929 74.9797 89.2428 75.6547L89.5066 76.1824C90.8868 75.4924 91.9181 74.5987 92.0932 73.4606L91.5101 73.3709ZM89.6602 75.8446L89.1293 73.7968L88.5582 73.9449L89.0891 75.9926L89.6602 75.8446ZM67.3818 80.9063C70.2288 81.6473 73.2878 81.1931 76.6253 80.1633C79.959 79.1346 83.6215 77.5137 87.6645 75.8889L87.4445 75.3415C83.3723 76.978 79.7539 78.5804 76.4513 79.5995C73.1526 80.6174 70.22 81.0354 67.5304 80.3354L67.3818 80.9063ZM87.4832 75.329L67.3848 80.3346L67.5274 80.9071L87.6258 75.9015L87.4832 75.329ZM76.9211 79.7984C76.7078 78.8387 76.8152 77.965 77.2704 77.1422C77.7302 76.3111 78.5571 75.5097 79.8218 74.7286L79.5118 74.2266C78.1978 75.0382 77.2804 75.9054 76.7542 76.8566C76.2234 77.816 76.1033 78.8384 76.3451 79.9264L76.9211 79.7984ZM79.3886 74.5758C79.5869 75.1377 79.5458 75.8259 79.3086 76.6106C79.0722 77.3926 78.6498 78.2409 78.1255 79.1023L78.6295 79.4091C79.167 78.526 79.6168 77.6299 79.8733 76.7814C80.1291 75.9354 80.2017 75.1068 79.945 74.3794L79.3886 74.5758ZM78.3112 79.5431C79.2788 79.7664 80.1596 80.0802 80.8572 80.4788C81.5577 80.8791 82.0482 81.3502 82.2786 81.8767L82.8191 81.6402C82.5185 80.9532 81.9094 80.4005 81.1499 79.9665C80.3875 79.5309 79.4481 79.2 78.4438 78.9682L78.3112 79.5431ZM82.4881 81.4698C81.0825 81.7657 79.9443 81.7229 79.0317 81.4128C78.1238 81.1043 77.4166 80.5237 76.8802 79.7013L76.386 80.0236C76.9873 80.9455 77.7969 81.6163 78.8419 81.9714C79.8823 82.325 81.1332 82.358 82.6096 82.0471L82.4881 81.4698ZM79.9903 75.8513C80.3939 75.2275 80.8214 74.7526 81.3234 74.4324C81.8212 74.1148 82.4097 73.9383 83.1556 73.9383V73.3483C82.3088 73.3483 81.6079 73.551 81.0061 73.935C80.4083 74.3163 79.9256 74.8653 79.495 75.5308L79.9903 75.8513ZM82.8624 73.6107C82.7174 74.9154 82.0591 76.5336 81.0267 77.8611L81.4924 78.2233C82.5835 76.8205 83.2904 75.1015 83.4488 73.6759L82.8624 73.6107ZM81.2467 78.3369C82.8979 78.4087 84.5004 79.3492 85.4498 80.2985L85.867 79.8813C84.8445 78.8588 83.1099 77.8274 81.2723 77.7475L81.2467 78.3369ZM85.4664 79.866C84.4865 80.7059 83.3713 80.9236 82.0029 80.6355L81.8813 81.2129C83.3949 81.5315 84.7067 81.2942 85.8504 80.3139L85.4664 79.866ZM82.214 80.8099L80.0146 75.5768L79.4707 75.8054L81.6701 81.0385L82.214 80.8099ZM83.2464 74.7213C83.9049 73.7702 84.5986 73.163 85.695 73.0259L85.6218 72.4405C84.2912 72.6068 83.468 73.3647 82.7613 74.3855L83.2464 74.7213ZM85.3785 72.8265C85.7848 74.0453 85.1796 75.5282 84.2287 76.5521L84.6611 76.9536C85.6821 75.854 86.4421 74.1514 85.9383 72.6399L85.3785 72.8265ZM84.3921 77.0431C86.0118 77.3376 87.2803 78.0638 87.9041 79.1728L88.4183 78.8835C87.6769 77.5655 86.2151 76.7749 84.4977 76.4626L84.3921 77.0431ZM87.9813 78.7943C87.0765 79.4904 86.1244 79.6249 85.0854 79.2093L84.8662 79.7571C86.1025 80.2516 87.274 80.0828 88.3411 79.262L87.9813 78.7943ZM85.2497 79.3736L83.2778 74.4439L82.73 74.663L84.7019 79.5928L85.2497 79.3736ZM86.1785 73.6159C86.6002 73.1591 87.0011 72.9334 87.4375 72.8526C87.8843 72.7699 88.4018 72.8323 89.0682 73.0174L89.2261 72.449C88.5273 72.2549 87.9072 72.1656 87.3301 72.2725C86.7427 72.3813 86.2335 72.6865 85.745 73.2157L86.1785 73.6159ZM88.8522 72.7332C88.8522 73.5926 88.2457 74.5797 87.2881 75.39L87.6692 75.8404C88.6834 74.9822 89.4422 73.8457 89.4422 72.7332H88.8522ZM87.7215 75.4477L86.2046 73.2483L85.7189 73.5833L87.2358 75.7827L87.7215 75.4477ZM87.7647 78.64C88.4577 78.6808 89.045 78.5582 89.583 78.2629C90.1147 77.9709 90.5794 77.5205 91.0461 76.9371L90.5853 76.5686C90.1419 77.1229 89.7343 77.5067 89.2991 77.7457C88.8701 77.9812 88.3956 78.0861 87.7993 78.0511L87.7647 78.64ZM91.015 76.5354C90.0328 75.635 88.8823 75.3141 87.446 75.4737L87.5112 76.0601C88.8053 75.9163 89.7784 76.2022 90.6164 76.9703L91.015 76.5354ZM87.1856 75.8014L87.489 78.38L88.075 78.3111L87.7716 75.7324L87.1856 75.8014ZM92.6162 39.8122C92.3474 38.8714 92.5984 38.1291 93.2633 37.0949L92.767 36.7759C92.0667 37.8653 91.711 38.7916 92.0489 39.9743L92.6162 39.8122ZM92.8515 37.1809C93.6444 37.7095 94.0853 38.8029 94.0853 40.1967H94.6753C94.6753 38.7084 94.2061 37.3748 93.1788 36.69L92.8515 37.1809ZM94.4235 39.9048L92.3758 39.6015L92.2893 40.1851L94.3371 40.4885L94.4235 39.9048ZM87.7875 66.0053C90.9644 64.005 92.372 60.6986 93.0128 56.5479C93.6521 52.4065 93.5379 47.3486 93.6135 41.7934L93.0235 41.7853C92.9474 47.379 93.0607 52.3702 92.4297 56.4578C91.8001 60.5361 90.4394 63.6383 87.4731 65.506L87.7875 66.0053ZM93.0315 41.7212L87.3433 65.6875L87.9173 65.8238L93.6055 41.8575L93.0315 41.7212ZM93.155 53.257C92.1963 53.044 91.443 52.5693 90.8709 51.8123C90.2938 51.0488 89.8891 49.9817 89.6661 48.5692L89.0833 48.6612C89.3153 50.1307 89.7449 51.301 90.4002 52.1681C91.0606 53.0418 91.9379 53.5909 93.027 53.833L93.155 53.257ZM89.3574 48.9097C89.9084 48.9421 90.5117 49.255 91.1362 49.7877C91.7558 50.3161 92.3656 51.0347 92.9268 51.8204L93.4069 51.4774C92.8304 50.6704 92.1888 49.91 91.5191 49.3388C90.8542 48.7717 90.1303 48.3641 89.392 48.3207L89.3574 48.9097ZM93.4105 51.8151C93.9635 51.0041 94.6056 50.3269 95.241 49.8458C95.8818 49.3606 96.4906 49.0938 96.9786 49.0612L96.9393 48.4725C96.2897 48.5159 95.5712 48.8558 94.8848 49.3754C94.1929 49.8993 93.5078 50.6252 92.9231 51.4827L93.4105 51.8151ZM96.6676 48.7209C96.4456 50.1269 96.0058 51.1717 95.3954 51.9059C94.7888 52.6356 93.9989 53.0768 93.0373 53.2549L93.1447 53.835C94.2309 53.6339 95.1474 53.1271 95.8491 52.2831C96.547 51.4436 97.0173 50.2889 97.2503 48.8129L96.6676 48.7209ZM90.6775 48.8243C90.242 48.2073 90.0004 47.6447 89.923 47.0686C89.8456 46.4919 89.9291 45.8763 90.184 45.148L89.6271 44.9531C89.3511 45.7417 89.2451 46.4534 89.3383 47.1471C89.4315 47.8413 89.7209 48.4922 90.1955 49.1645L90.6775 48.8243ZM89.761 45.3077C90.924 45.9619 92.1733 47.2093 92.9058 48.6009L93.4279 48.3261C92.6434 46.8357 91.3141 45.5044 90.0502 44.7935L89.761 45.3077ZM93.4307 48.5954C94.149 47.1589 95.6001 46.0641 96.9142 45.5531L96.7004 45.0032C95.2841 45.554 93.7015 46.7345 92.903 48.3316L93.4307 48.5954ZM96.5291 45.3763C96.9402 46.5412 96.6142 47.5804 95.8704 48.8448L96.379 49.144C97.152 47.8298 97.5844 46.5937 97.0855 45.1799L96.5291 45.3763ZM96.1247 48.6994H90.4365V49.2894H96.1247V48.6994ZM90.8242 45.4045C90.1955 44.5662 89.9812 43.6648 90.1961 42.4474L89.6151 42.3448C89.3749 43.7061 89.6157 44.7765 90.3522 45.7585L90.8242 45.4045ZM89.8747 42.6895C91.1651 42.8253 92.3106 44.0022 92.8972 45.3221L93.4364 45.0825C92.8095 43.6721 91.5281 42.2703 89.9365 42.1027L89.8747 42.6895ZM93.4162 45.3598C94.2995 43.9613 95.4501 43.0478 96.7041 42.8388L96.6071 42.2568C95.1307 42.5029 93.8544 43.5612 92.9174 45.0448L93.4162 45.3598ZM96.3684 42.6153C96.5109 43.2209 96.508 43.741 96.3887 44.2099C96.2691 44.6796 96.0283 45.115 95.6705 45.5443L96.1238 45.922C96.5245 45.4412 96.8145 44.9286 96.9604 44.3555C97.1065 43.7815 97.1036 43.164 96.9427 42.4802L96.3684 42.6153ZM95.9056 45.4383L90.5966 45.2866L90.5797 45.8764L95.8887 46.0281L95.9056 45.4383ZM90.9422 42.3738C90.7269 41.7638 90.683 41.291 90.7813 40.8484C90.881 40.4 91.1341 39.9486 91.577 39.395L91.1162 39.0264C90.649 39.6104 90.3333 40.145 90.2054 40.7204C90.0762 41.3018 90.146 41.8907 90.3858 42.5701L90.9422 42.3738ZM91.2147 39.4746C92.0357 39.8851 92.751 40.7954 93.1128 41.9532L93.6759 41.7772C93.2793 40.508 92.4778 39.4465 91.4785 38.9469L91.2147 39.4746ZM93.3304 41.5772L90.6 42.184L90.728 42.7599L93.4583 42.1532L93.3304 41.5772ZM96.2291 42.6941C96.9174 41.4896 96.5473 40.3001 95.8419 39.2029L95.3456 39.5219C96.0054 40.5483 96.2421 41.4823 95.7169 42.4014L96.2291 42.6941ZM95.5127 39.0787C94.3157 39.4207 93.5058 40.5167 93.1113 41.8578L93.6774 42.0243C94.0413 40.7867 94.7482 39.9108 95.6748 39.646L95.5127 39.0787ZM93.3268 42.2282L95.9054 42.8349L96.0406 42.2606L93.4619 41.6539L93.3268 42.2282ZM99.1328 54.5543C99.4827 53.5747 100.107 52.9433 101.043 52.4396L100.763 51.9201C99.7265 52.4782 98.9858 53.2119 98.5772 54.3559L99.1328 54.5543ZM100.639 52.3117C101.032 53.0987 100.924 54.2773 100.193 55.519L100.702 55.8181C101.488 54.4812 101.683 53.0812 101.167 52.0479L100.639 52.3117ZM100.627 55.4339L99.0338 54.2204L98.6763 54.6897L100.269 55.9032L100.627 55.4339ZM91.9762 68.111L99.1055 56.6588L98.6046 56.3469L91.4754 67.7992L91.9762 68.111ZM92.9908 66.3761C92.2778 65.6987 91.8572 64.9061 91.7339 63.9635C91.6097 63.0139 91.7844 61.89 92.3041 60.5536L91.7542 60.3398C91.2122 61.7337 91.0077 62.9609 91.1489 64.0401C91.291 65.1262 91.7806 66.0401 92.5844 66.8038L92.9908 66.3761ZM91.8469 60.6786C92.8082 61.4339 93.4053 63.0705 93.5553 65.0199L94.1435 64.9746C93.9901 62.9802 93.3738 61.128 92.2114 60.2147L91.8469 60.6786ZM93.9723 65.2654C94.8628 64.8573 95.7437 64.5837 96.5314 64.4841C97.3228 64.384 97.9936 64.4626 98.4887 64.7266L98.7663 64.206C98.1237 63.8633 97.3156 63.7902 96.4574 63.8987C95.5956 64.0077 94.6562 64.3029 93.7265 64.7291L93.9723 65.2654ZM98.4078 64.2694C97.4426 65.3461 96.5149 66.0111 95.6094 66.3307C94.7103 66.648 93.8121 66.6324 92.8841 66.3112L92.6911 66.8687C93.735 67.2301 94.7708 67.2523 95.8057 66.8871C96.8342 66.5241 97.8405 65.7861 98.8471 64.6633L98.4078 64.2694ZM93.0064 61.3428C92.9697 60.5717 93.0446 59.9358 93.2695 59.3821C93.493 58.832 93.8735 58.3414 94.4837 57.8748L94.1253 57.4062C93.4461 57.9255 92.9924 58.4967 92.7229 59.1601C92.4548 59.82 92.378 60.5492 92.4171 61.3708L93.0064 61.3428ZM94.0473 57.7851C94.7025 58.9498 95.1448 60.715 95.0716 62.2529L95.6609 62.2809C95.7394 60.6334 95.2716 58.7581 94.5616 57.4959L94.0473 57.7851ZM95.5238 62.5163C96.9087 61.6416 98.7273 61.2841 100.084 61.5696L100.205 60.9923C98.6794 60.6711 96.7058 61.0719 95.2087 62.0175L95.5238 62.5163ZM99.8613 61.1977C99.5063 62.4047 98.7303 63.3246 97.5159 63.896L97.7672 64.4299C99.1315 63.7878 100.024 62.7358 100.427 61.3642L99.8613 61.1977ZM97.7875 63.9066L92.8577 61.1004L92.5658 61.6132L97.4956 64.4193L97.7875 63.9066ZM94.9023 58.4564C94.8298 57.2965 95.0468 56.3294 95.8782 55.498L95.461 55.0808C94.4722 56.0696 94.2342 57.2261 94.3134 58.4932L94.9023 58.4564ZM95.4874 55.5213C96.4409 56.2706 96.8896 57.8216 96.816 59.2943L97.4053 59.3238C97.4833 57.7627 97.0219 55.9767 95.8519 55.0574L95.4874 55.5213ZM97.2584 59.5643C98.6445 58.7619 100.14 58.5644 101.321 59.0509L101.546 58.5054C100.149 57.9301 98.4588 58.1876 96.9628 59.0537L97.2584 59.5643ZM101.151 58.6949C100.973 59.3006 100.71 59.7478 100.372 60.0864C100.033 60.4257 99.6018 60.6705 99.0651 60.8494L99.2517 61.4091C99.8526 61.2088 100.37 60.9227 100.789 60.5036C101.209 60.0838 101.516 59.545 101.717 58.8614L101.151 58.6949ZM99.307 60.8744L94.7565 58.2199L94.4592 58.7296L99.0098 61.3841L99.307 60.8744ZM96.5694 55.7789C96.6386 55.1899 96.843 54.7555 97.1587 54.4065C97.4797 54.0518 97.9304 53.769 98.5182 53.5119L98.2817 52.9713C97.656 53.2451 97.1208 53.569 96.7212 54.0107C96.3165 54.458 96.0658 55.0096 95.9834 55.71L96.5694 55.7789ZM98.1614 53.4151C98.6968 54.1514 98.7874 55.2643 98.5645 56.5274L99.1455 56.63C99.3777 55.3144 99.3166 54.0004 98.6385 53.0681L98.1614 53.4151ZM98.9458 56.298L96.3672 55.4637L96.1856 56.0251L98.7642 56.8594L98.9458 56.298ZM100.911 58.7988C101.49 58.4265 101.872 57.9632 102.104 57.4028C102.334 56.8496 102.411 56.2181 102.411 55.5169H101.821C101.821 56.1809 101.747 56.7249 101.559 57.1766C101.375 57.6212 101.074 57.9922 100.592 58.3025L100.911 58.7988ZM102.155 55.2245C100.909 55.0583 99.6838 55.5603 98.7223 56.5218L99.1395 56.939C99.9982 56.0803 101.048 55.6721 102.077 55.8093L102.155 55.2245ZM98.7223 56.939L100.542 58.7592L100.96 58.342L99.1395 56.5218L98.7223 56.939ZM68.8928 76.6598C71.9809 75.8878 75.2546 73.73 78.2918 71.9152C79.822 71.0008 81.2953 70.1703 82.6782 69.6192C84.0634 69.0672 85.3255 68.8092 86.4419 69.0041L86.5434 68.4229C85.2707 68.2007 83.8879 68.502 82.4598 69.0711C81.0294 69.6411 79.5211 70.4933 77.9892 71.4087C74.9021 73.2533 71.7291 75.3426 68.7498 76.0875L68.8928 76.6598ZM86.3753 68.4429L68.704 76.103L68.9386 76.6443L86.61 68.9842L86.3753 68.4429ZM62.6299 77.7117C66.6014 76.2224 69.9298 74.2951 72.8369 72.4268C75.7574 70.5498 78.2176 68.7575 80.5108 67.4929C82.7955 66.233 84.8452 65.5396 86.9097 65.8251C88.9702 66.1101 91.1102 67.3802 93.5506 70.1961L93.9965 69.8097C91.5071 66.9373 89.2482 65.5529 86.9905 65.2407C84.7367 64.9289 82.5486 65.6954 80.2259 66.9763C77.9117 68.2524 75.3947 70.0816 72.5179 71.9304C69.6278 73.7879 66.339 75.6907 62.4228 77.1592L62.6299 77.7117ZM93.8141 69.7107C88.2515 68.9381 83.1288 71.3169 78.2295 73.7004C73.2923 76.1022 68.599 78.4963 63.7714 77.9764L63.7083 78.563C68.7403 79.1049 73.6031 76.6071 78.4876 74.2309C83.4098 71.8363 88.3742 69.5508 93.733 70.295L93.8141 69.7107ZM63.907 78.0266L62.6935 77.1924L62.3592 77.6785L63.5727 78.5128L63.907 78.0266ZM56.7824 77.98C54.7883 78.3635 53.1788 78.9004 51.7305 79.4339L51.9345 79.9875C53.3683 79.4593 54.9442 78.9343 56.8939 78.5594L56.7824 77.98ZM51.9706 79.45C50.6341 78.7425 48.5425 78.2819 46.7237 77.9787L46.6267 78.5607C48.4484 78.8643 50.4523 79.3138 51.6945 79.9714L51.9706 79.45ZM46.6752 78.5647H56.8382V77.9747H46.6752V78.5647ZM58.4539 78.8896C56.7639 79.1969 55.0032 79.7333 53.4795 80.2666L53.6744 80.8234C55.1844 80.2949 56.9124 79.7695 58.5595 79.4701L58.4539 78.8896ZM53.4562 80.8142C55.6214 81.7848 57.4158 83.0546 59.142 84.6308L59.5399 84.1951C57.7774 82.5859 55.9313 81.2772 53.6976 80.2758L53.4562 80.8142ZM59.1534 84.1853L57.8641 85.2471L58.2392 85.7025L59.5285 84.6407L59.1534 84.1853ZM58.2602 85.2662C56.4147 83.4206 54.4102 82.0322 51.9436 81.0301L51.7215 81.5767C54.1088 82.5466 56.0481 83.8885 57.843 85.6834L58.2602 85.2662ZM51.7111 81.0346C49.3374 82.1066 47.1076 83.4889 45.2576 85.2618L45.6659 85.6878C47.4563 83.9719 49.6254 82.6239 51.9539 81.5723L51.7111 81.0346ZM45.6493 85.2471L44.3599 84.1853L43.9849 84.6407L45.2742 85.7025L45.6493 85.2471ZM44.3759 84.6266C45.9532 83.1244 47.5981 81.8544 49.6892 80.8089L49.4253 80.2812C47.2692 81.3592 45.577 82.6678 43.969 84.1994L44.3759 84.6266ZM49.6696 80.2722C48.3666 79.7357 46.7535 79.1976 45.0594 78.8896L44.9539 79.4701C46.5969 79.7688 48.1693 80.2925 49.4449 80.8178L49.6696 80.2722ZM45.0067 79.4748H58.5067V78.8848H45.0067V79.4748ZM72.4792 81.3935C70.7873 81.7355 69.2513 81.3041 67.7298 80.5121C66.1924 79.7117 64.725 78.5765 63.1249 77.521C61.5432 76.4777 59.8569 75.5324 57.9562 75.1956C56.0438 74.8567 53.9413 75.138 51.5358 76.496L51.8259 77.0098C54.1226 75.7132 56.0872 75.4636 57.8532 75.7765C59.6309 76.0915 61.2342 76.9807 62.8 78.0135C64.3474 79.0342 65.8852 80.2169 67.4574 81.0354C69.0454 81.8621 70.7233 82.3503 72.596 81.9718L72.4792 81.3935ZM51.7061 77.0468C53.3794 76.9028 55.0452 77.5355 56.7454 78.5047C57.5932 78.9879 58.4403 79.5494 59.2941 80.1298C60.1447 80.7081 61.0049 81.3073 61.8654 81.8556C63.5826 82.9497 65.3502 83.874 67.1683 84.0641C69.0095 84.2566 70.866 83.6932 72.7417 81.8956L72.3335 81.4697C70.5687 83.1609 68.8796 83.6498 67.2296 83.4773C65.5566 83.3024 63.8876 82.4444 62.1824 81.358C61.3317 80.816 60.4842 80.2255 59.6258 79.6419C58.7704 79.0603 57.9069 78.4877 57.0376 77.9921C55.3035 77.0036 53.5089 76.2995 51.6556 76.459L51.7061 77.0468ZM6.8458 44.7012L6.61827 43.2602L6.0355 43.3522L6.26302 44.7932L6.8458 44.7012ZM6.92502 42.1568L6.84917 40.2607L6.25965 40.2843L6.33549 42.1804L6.92502 42.1568ZM8.06187 39.0077L8.21356 37.1874L7.6256 37.1384L7.47392 38.9587L8.06187 39.0077ZM10.8664 36.5961L11.0939 34.9275L10.5093 34.8478L10.2818 36.5164L10.8664 36.5961ZM12.3097 38.5436L12.3855 37.1026L11.7963 37.0716L11.7205 38.5126L12.3097 38.5436ZM13.9689 42.092L14.3481 40.6509L13.7776 40.5008L13.3983 41.9418L13.9689 42.092ZM14.191 44.7647L14.6461 43.3995L14.0864 43.2129L13.6313 44.5781L14.191 44.7647ZM3.1984 60.769L1.98492 59.5555L1.56773 59.9727L2.78121 61.1862L3.1984 60.769ZM1.94935 58.4681L0.887558 56.7995L0.389801 57.1163L1.4516 58.7848L1.94935 58.4681ZM1.43592 55.1625L0.677494 53.5698L0.14481 53.8235L0.903237 55.4162L1.43592 55.1625ZM2.6561 51.6889L1.97351 50.0204L1.42744 50.2438L2.11003 51.9123L2.6561 51.6889ZM4.91939 52.6492L4.16097 51.2082L3.63887 51.4829L4.39729 52.9239L4.91939 52.6492ZM8.03384 54.9342L7.12373 53.0381L6.59184 53.2934L7.50195 55.1895L8.03384 54.9342ZM9.57499 57.1327L9.27162 55.4641L8.69114 55.5697L8.99451 57.2382L9.57499 57.1327ZM17.3881 79.802L16.0229 79.4986L15.8949 80.0746L17.2601 80.3779L17.3881 79.802ZM14.994 78.6737L13.2496 78.0669L13.0558 78.6242L14.8002 79.2309L14.994 78.6737ZM12.5922 76.3326L10.9237 75.5742L10.6795 76.1113L12.3481 76.8697L12.5922 76.3326ZM11.4045 72.8571L9.96346 72.0228L9.66784 72.5334L11.1089 73.3677L11.4045 72.8571ZM13.8577 72.2275L12.5683 71.7724L12.372 72.3288L13.6613 72.7838L13.8577 72.2275ZM17.8135 72.2009L16.6 71.2149L16.2279 71.6728L17.4414 72.6588L17.8135 72.2009ZM20.2552 73.0479L19.1934 72.062L18.7919 72.4943L19.8537 73.4803L20.2552 73.0479Z" fill="#087E53"/>
<path fill-rule="evenodd" clip-rule="evenodd" d="M64.9532 58.6261L66.4701 57.9435C66.6976 57.716 66.9252 57.6401 67.001 57.5643C67.2285 57.4884 67.4561 57.3367 67.5319 57.1851H67.6077C67.6077 57.3367 67.5319 57.4126 67.5319 57.4884C67.5319 57.5643 67.3802 57.6401 67.3802 57.716C67.1527 58.0193 66.7735 58.3227 66.2426 58.6261C66.015 58.7019 65.7875 58.8536 65.4841 59.0053C65.1049 59.157 64.8016 59.3087 64.574 59.3087C64.2707 59.5362 63.9673 59.6879 63.8156 59.8396C63.8156 59.9154 63.7398 59.9912 63.7398 60.1429C63.6639 60.2188 63.6639 60.2946 63.6639 60.3705C63.6639 60.6738 63.6639 60.9772 63.6639 61.2806C63.6639 61.5839 63.7398 61.8873 63.7398 62.1907C63.7398 62.3424 63.8156 62.494 63.8914 62.5699C63.9673 62.7216 64.0431 62.8733 64.1948 62.8733H64.2707C64.3465 62.4941 64.574 62.1907 64.574 61.9632C64.8016 61.6598 64.9532 61.3564 65.1808 61.2047C65.1808 61.2047 65.2566 61.2047 65.3325 61.2047C65.4083 61.1289 65.4841 61.1289 65.4841 61.1289C65.6358 61.1289 65.7875 61.2047 65.9392 61.2047C66.1667 61.2806 66.3943 61.3564 66.6218 61.4323L67.0768 61.5839C67.1527 61.6598 67.1527 61.6598 67.0768 61.7356C66.9252 61.8115 66.5459 62.1907 66.1667 62.7216C65.8634 63.1766 65.4841 63.4042 65.1808 63.6317C64.8774 63.9351 64.4223 64.0867 63.8914 64.0867C63.8156 64.0109 63.5881 63.9351 63.5881 63.7834C63.5122 63.7075 63.4364 63.48 63.4364 63.3283C63.3605 63.6317 63.2089 63.7834 63.133 64.0109C63.0572 64.1626 62.9055 64.3901 62.7538 64.5418C62.678 64.921 62.6021 65.2244 62.5263 65.3761C62.4504 65.6036 62.3746 65.8311 62.2229 66.0587C62.0712 66.1345 61.9195 66.1345 61.7679 66.2103C61.4645 66.2862 61.3128 66.362 60.9336 66.4379C60.9336 66.4379 60.8577 66.4379 60.7819 66.4379C60.7061 66.5137 60.5544 66.5137 60.4785 66.5137C60.4027 66.4379 60.4027 66.4379 60.4785 66.362C60.6302 66.2862 60.7819 66.1345 60.9336 66.0587C61.1611 65.9828 61.3886 65.907 61.4645 65.7553C61.692 65.6794 61.7679 65.6036 61.9195 65.5278C62.1471 65.4519 62.2229 65.2244 62.2988 65.1485C62.2988 65.0727 62.2988 65.0727 62.2988 65.0727C62.2988 64.9969 62.2988 64.7693 62.2229 64.7693C62.1471 64.7693 62.1471 64.6935 62.1471 64.6935C61.9954 64.6935 61.9195 64.6935 61.8437 64.6935C61.7679 64.6935 61.692 64.6935 61.5403 64.6176C61.4645 64.6176 61.4645 64.5418 61.4645 64.466C61.3886 64.3901 61.3886 64.3901 61.3886 64.1626C61.3886 64.0867 61.4645 63.8592 61.4645 63.7075C61.5403 63.48 61.6162 63.3283 61.6162 63.1766C61.692 63.1008 61.692 63.1008 61.692 63.0249C61.692 62.9491 61.7679 62.9491 61.7679 62.9491C61.8437 62.9491 61.8437 62.9491 61.9195 62.9491C62.0712 62.9491 62.1471 62.9491 62.2229 63.0249C62.2988 63.1008 62.3746 63.2525 62.3746 63.3283C62.4504 63.48 62.5263 63.6317 62.5263 63.7834C62.6021 63.7834 62.6021 63.7834 62.6021 63.7834C62.678 63.7834 62.678 63.7075 62.678 63.7075C62.7538 63.6317 62.9055 63.48 62.9055 63.4042C62.9813 63.2525 63.0572 63.0249 63.0572 62.8733C63.0572 62.7974 63.0572 62.7216 63.0572 62.5699C63.0572 62.494 63.0572 62.4941 63.0572 62.4182C63.0572 62.3424 63.0572 62.1148 63.0572 61.9632C63.0572 61.6598 63.0572 61.5081 63.0572 61.4323C63.0572 61.3564 63.0572 61.1289 63.0572 61.053C63.0572 60.9772 63.0572 60.9014 63.0572 60.8255C63.133 60.3705 63.2847 60.0671 63.4364 59.8396C63.5122 59.612 63.7398 59.4603 63.8914 59.3845L64.9532 58.6261ZM66.3943 61.9632L66.0909 61.8873L65.4841 61.7356C65.4083 61.7356 65.3325 61.7356 65.3325 61.7356C65.2566 61.7356 65.1808 61.8115 65.1049 61.8115C65.0291 61.8873 65.0291 62.039 64.8774 62.1907C64.8016 62.2665 64.7257 62.4182 64.6499 62.4941C64.6499 62.5699 64.574 62.7974 64.574 62.7974C64.574 62.8733 64.574 62.8733 64.574 62.8733C64.8774 62.8733 65.0291 62.8733 65.3325 62.7974C65.56 62.7216 65.7875 62.5699 66.015 62.4182C66.0909 62.3424 66.0909 62.2665 66.1667 62.2665C66.2426 62.1148 66.3943 61.9632 66.3943 61.9632ZM52.6667 63.48L53.1976 62.7216H53.3493C53.501 62.7974 53.6527 62.9491 53.6527 63.0249C53.8044 63.1766 53.956 63.2525 54.1077 63.3283H54.1836C54.2594 63.1008 54.4869 62.9491 54.6386 62.7974H54.7145C54.8662 62.8733 55.0178 62.9491 55.0937 63.1008C55.1695 63.1766 55.3212 63.2525 55.5487 63.4042C55.5487 63.48 55.5487 63.48 55.5487 63.48C55.4729 63.5559 55.4729 63.5558 55.2454 63.7075C55.1695 63.8592 55.1695 64.0109 55.0937 64.0109C55.0178 64.0867 54.942 64.1626 54.8662 64.3143C54.7903 64.3143 54.7145 64.2384 54.5628 64.2384C54.5628 64.2384 54.4869 64.1626 54.4111 64.1626C54.3353 64.0867 54.2594 64.0867 54.1077 64.0109C54.0319 63.9351 54.0319 63.7834 53.956 63.7075C53.8802 63.8592 53.8802 63.9351 53.6527 64.0109C53.5768 64.0867 53.4252 64.2384 53.4252 64.3143H53.3493C53.2735 64.3143 53.2735 64.3143 53.1218 64.2384C53.0459 64.1626 53.0459 64.1626 52.9701 64.1626C52.8942 64.0867 52.8184 64.0109 52.7426 63.9351C52.7426 63.7075 52.6667 63.5559 52.6667 63.48ZM60.3268 61.8115C60.251 61.8873 60.0235 62.1148 60.0235 62.1148C60.0235 62.1907 59.9476 62.3424 59.9476 62.5699C59.8718 62.6457 59.7959 62.7216 59.6443 62.7974C59.5684 62.8733 59.4926 62.8733 59.4167 63.0249C59.0375 63.48 58.81 63.7834 58.7341 63.9351C58.4308 64.2384 58.1274 64.3901 57.824 64.466H57.7482C57.6723 64.466 57.5207 64.466 57.5207 64.466C57.5207 64.466 57.5207 64.3901 57.5965 64.3143C57.6723 64.2384 57.6723 64.0867 57.5965 64.0109C57.5965 64.0109 57.5207 64.0109 57.4448 64.0867C57.369 64.2384 57.2931 64.3901 57.2173 64.466C57.1414 64.5418 56.9898 64.6176 56.9139 64.7693C56.4589 64.9969 56.0038 65.1486 55.3971 65.2244C55.0178 65.3002 54.3353 65.3002 53.7285 65.3002C53.1976 65.3002 52.6667 65.3002 52.2875 65.2244C51.9083 65.2244 51.5291 65.0727 51.2257 64.921C51.1499 64.921 51.074 64.8452 51.074 64.7693C50.9982 64.6935 50.9982 64.5418 50.9982 64.466C50.9982 64.3901 50.9982 64.3901 50.9982 64.3143C50.9982 64.2384 50.9982 64.2384 50.9982 64.1626C50.9982 64.0867 50.9223 64.0109 50.9223 64.0109C50.9223 64.0109 50.8465 64.0109 50.7707 64.0867C50.7707 64.3143 50.6948 64.5418 50.6948 64.6935C50.6948 64.7693 50.6948 64.9969 50.6948 65.1485C50.6948 65.2244 50.6948 65.3761 50.6948 65.4519C50.6948 65.5278 50.7707 65.6794 50.7707 65.7553C50.8465 65.907 50.9982 66.0587 51.2257 66.1345C51.2257 66.2103 51.3774 66.2103 51.6808 66.2862C52.06 66.2862 52.4392 66.362 52.8184 66.362C53.2735 66.362 53.6527 66.362 54.1077 66.2862C54.4111 66.2103 54.8662 66.2103 55.2454 66.1345C55.7763 65.9828 56.2313 65.8311 56.5347 65.6794C56.9898 65.3761 57.2931 65.0727 57.5207 64.6176C57.5965 64.6935 57.5965 64.6935 57.7482 64.6935C57.824 64.6935 57.8999 64.6935 57.9757 64.7693C58.0516 64.7693 58.0516 64.7693 58.0516 64.7693C58.1274 64.7693 58.3549 64.6935 58.4308 64.6935C58.5066 64.6176 58.6583 64.6176 58.81 64.3901C58.8858 64.2384 59.1134 64.0868 59.1892 63.8592C59.4167 63.6317 59.5684 63.4042 59.7959 63.4042C59.8718 63.3283 59.8718 63.3283 59.9476 63.3283C60.0235 63.3283 60.0993 63.4042 60.3268 63.4042C60.4027 63.4042 60.4785 63.48 60.5544 63.48C60.6302 63.48 60.8577 63.4042 60.9336 63.3283C61.0094 63.2525 61.0094 63.1008 61.1611 63.0249C61.1611 62.9491 61.237 62.9491 61.237 62.7974C61.237 62.7216 61.237 62.6457 61.237 62.5699C61.1611 62.4182 61.0094 62.2665 60.8577 62.1148C60.5544 62.1148 60.4027 61.9632 60.3268 61.8115ZM43.7173 67.4997L44.4757 66.8171H44.5515C44.6274 66.8929 44.7032 67.0446 44.8549 67.1205C44.9308 67.2721 45.1583 67.348 45.2341 67.4238C45.2341 67.4238 45.2341 67.4997 45.1583 67.4997L44.5515 68.0306C44.5515 68.1064 44.4757 68.1064 44.4757 68.1064C44.3999 68.1064 44.324 68.1064 44.324 68.0306C44.2482 68.0306 44.2482 68.0306 44.2482 67.9547C44.1723 67.8789 44.0965 67.803 44.0207 67.7272C43.869 67.7272 43.7931 67.6514 43.7173 67.4997ZM48.5712 65.3002H48.6471C48.7229 65.3761 48.7987 65.4519 48.9504 65.6036C49.0263 65.7553 49.2538 65.8311 49.3296 65.907C49.2538 65.9828 49.2538 66.0587 49.178 66.1345C49.1021 66.2103 49.0263 66.362 48.9504 66.4379C48.8746 66.4379 48.8746 66.5137 48.8746 66.5137C48.7987 66.5896 48.7229 66.5896 48.5712 66.5896C48.4954 66.5896 48.3437 66.5137 48.2678 66.4379C48.192 66.362 47.9645 66.1345 47.9645 66.0587L48.5712 65.3002ZM48.5712 64.6176C48.4195 64.8452 48.2678 64.9969 48.0403 65.2244C47.9645 65.2244 47.8128 65.1485 47.7369 64.9969C47.5853 64.921 47.5094 64.921 47.4336 64.7693C47.3577 64.6935 47.3577 64.6176 47.3577 64.5418C47.4336 64.466 47.5853 64.3143 47.6611 64.2384C47.7369 64.0109 47.8886 63.9351 47.9645 63.8592H48.0403C48.3437 64.0868 48.4954 64.2384 48.4954 64.2384C48.5712 64.3143 48.6471 64.3143 48.7987 64.466L49.2538 63.9351H49.3296C49.4055 64.0109 49.5572 64.2384 49.633 64.2384C49.7847 64.3143 49.9364 64.3901 50.0122 64.466C50.0122 64.5418 50.0122 64.5418 50.0122 64.5418C50.0122 64.5418 50.0122 64.6176 49.9364 64.6176L49.4055 65.2244L49.3296 65.3002C49.2538 65.3002 49.2538 65.2244 49.178 65.2244C49.1021 65.2244 49.1021 65.1485 49.0263 65.1485C48.9504 65.0727 48.8746 64.9969 48.7987 64.921C48.7229 64.8452 48.7229 64.7693 48.5712 64.6176ZM43.5656 64.6176C43.5656 65.3002 43.6414 65.6036 43.6414 65.6794C43.7173 66.0587 43.9448 66.362 44.1723 66.4379C44.2482 66.4379 44.324 66.5137 44.4757 66.5137C44.7032 66.5137 44.9308 66.4379 45.1583 66.2862C45.3858 66.1345 45.6133 65.9828 45.765 65.6794L46.8268 64.2384V64.0109C46.8268 63.9351 46.751 63.9351 46.751 63.9351C46.1442 63.9351 45.6134 63.8592 45.0825 63.8592C45.0825 63.8592 45.0825 63.7834 45.1583 63.7075C45.31 63.48 45.6134 63.4042 45.8409 63.2525C46.1442 63.1008 46.3718 63.0249 46.6751 63.0249C46.751 63.0249 46.8268 63.1008 46.9785 63.2525C47.1302 63.3283 47.2819 63.3283 47.2819 63.3283H47.3577C47.5853 63.2525 47.7369 63.1008 47.8886 62.8733C48.0403 62.7216 48.192 62.4941 48.3437 62.3424C48.4195 62.2665 48.4195 62.1907 48.3437 62.1907C48.2678 62.1907 48.2678 62.1907 48.2678 62.1907C48.192 62.2665 48.1162 62.3424 47.9645 62.4941C47.8128 62.7216 47.6611 62.7974 47.4336 62.7974C47.3577 62.7974 47.3577 62.7974 47.3577 62.7974C47.2819 62.7216 47.1302 62.5699 46.9785 62.4941C46.8268 62.4941 46.6751 62.5699 46.4476 62.5699C46.3718 62.5699 45.9926 62.7974 45.765 62.8733C45.4617 63.1008 45.2341 63.3283 45.0066 63.4042C44.8549 63.6317 44.7032 63.8592 44.6274 64.2384L44.7032 64.3143H44.7791C45.2341 64.3901 45.765 64.3901 46.2201 64.3901C46.1442 64.466 46.1442 64.6176 45.9167 64.6935C45.9167 64.7693 45.8409 64.8452 45.6133 64.9969C45.5375 65.0727 45.31 65.1485 45.1583 65.3002C45.0066 65.3002 44.8549 65.3761 44.7032 65.3761C44.5516 65.3761 44.324 65.3002 44.2482 65.1485C44.0965 65.0727 44.0207 64.8452 43.9448 64.6935C43.9448 64.466 43.9448 64.2384 43.869 63.9351V62.4182C43.869 61.8873 43.9448 61.3564 44.0207 60.7497C44.0207 60.6738 43.9448 60.6738 43.9448 60.6738C43.869 60.6738 43.869 60.7497 43.7931 60.7497C43.7931 60.7497 43.7173 60.9772 43.6414 61.3564C43.5656 61.4323 43.5656 61.5839 43.5656 61.7356C43.5656 61.8115 43.5656 62.039 43.5656 62.1148C43.5656 62.2665 43.5656 62.4182 43.5656 62.4941V63.3283V64.6176ZM45.765 60.7497L46.4476 60.0671H46.5235C46.751 60.2188 46.9027 60.3705 46.9785 60.5221C46.9785 60.598 47.0544 60.598 47.1302 60.598C47.206 60.6738 47.206 60.6738 47.206 60.6738C46.9785 60.9014 46.751 61.1289 46.5235 61.3564C46.5235 61.3564 46.4476 61.3564 46.4476 61.2806C46.3718 61.2806 46.3718 61.2047 46.2959 61.2047C46.2201 61.1289 46.0684 61.053 45.9926 60.9772C45.8409 60.9014 45.765 60.8255 45.765 60.7497ZM37.4223 65.4519L37.4982 65.3761C37.7257 65.2244 38.0291 64.9969 38.3324 64.8452H38.4083C38.4841 65.0727 38.8633 65.3761 38.9392 65.6794V65.7553C38.8633 65.7553 38.7117 65.907 38.56 65.9828C38.4083 66.0587 38.2566 66.1345 38.1049 66.2862C38.0291 66.2862 37.8774 66.2862 37.8774 66.2103C37.8015 66.1345 37.7257 66.0587 37.7257 66.0587C37.6499 65.9828 37.574 65.7553 37.4982 65.6794C37.4982 65.5278 37.4223 65.4519 37.4223 65.4519ZM43.0347 63.48C43.1105 63.48 43.1105 63.48 43.0347 63.48C43.0347 63.4042 42.9589 63.4042 42.9589 63.48C42.8072 63.48 42.5796 63.7834 42.5038 63.7834C42.2763 63.8592 42.1246 63.8592 41.9729 63.8592C41.5178 63.8592 41.0628 63.7834 40.6077 63.7834C40.1527 63.7075 39.6218 63.6317 39.1667 63.4042C38.56 63.2525 38.1049 63.1008 37.6499 62.9491C37.4223 62.7974 36.9673 62.5699 36.7398 62.3424C36.7398 62.2665 36.6639 62.2665 36.5881 62.1148C36.5881 62.039 36.6639 61.8873 36.6639 61.8115L36.7398 61.5839C36.7398 61.5839 36.7397 61.5081 36.8156 61.4323C36.8156 61.3564 36.7398 61.3564 36.7398 61.3564H36.6639C36.6639 61.3564 36.6639 61.3564 36.5881 61.3564C36.5122 61.6598 36.4364 61.8115 36.2847 61.9632C36.2847 62.1148 36.2088 62.2665 36.133 62.4182C36.133 62.4941 36.0572 62.5699 36.0572 62.7216C36.0572 62.7974 35.9813 62.8733 35.9813 63.0249C36.0572 63.1008 36.0572 63.2525 36.0572 63.3283C36.2089 63.48 36.3605 63.5558 36.5122 63.7075C36.8914 63.8592 37.4223 64.1626 37.9532 64.2384C38.4083 64.3901 39.015 64.5418 39.5459 64.5418C40.001 64.6935 40.6077 64.6935 40.9869 64.7693C41.442 64.7693 41.8212 64.6935 42.2763 64.3901C42.5796 64.2384 42.883 63.9351 43.0347 63.48Z" fill="#087E53"/>
</svg>
